<svg id="__TEMP__SVG__" xmlns="http://www.w3.org/2000/svg" width="31.881" height="30.001" viewBox="0 0 31.881 30.001">
  <path id="Path_3" data-name="Path 3" d="M33.71,16.334l-15-14.063a1.048,1.048,0,0,0-1.41,0L2.3,16.334a.9.9,0,0,0,.052,1.273,1.049,1.049,0,0,0,1.358.049L18,4.259,32.29,17.666a1.049,1.049,0,0,0,1.358-.049.9.9,0,0,0,.052-1.273Z" transform="translate(-2.06 -1.999)" fill="#fff"/>
  <path id="Path_4" data-name="Path 4" d="M28,31.11H23V21.735H13V31.11H8V17.985L6,19.86V31.11a1.941,1.941,0,0,0,2,1.875h7V23.61h6v9.375h7a1.941,1.941,0,0,0,2-1.875V19.635L28,17.76Z" transform="translate(-2.06 -2.984)" fill="#fff"/>
</svg>
